/* XPM */
static char *xdg_browser_launcher[] = {
/* columns rows colors chars-per-pixel */
"32 32 256 2",
"   c #161E77",
".  c #1E257B",
"X  c #232B7E",
"o  c #21277C",
"O  c #1A2E84",
"+  c #2C3485",
"@  c #27368C",
"#  c #2C378A",
"$  c #243B90",
"%  c #1F4799",
"&  c #1F499C",
"*  c #31408E",
"=  c #3A418F",
"-  c #224397",
";  c #284897",
":  c #244699",
">  c #244C9C",
",  c #284B99",
"<  c #2E4593",
"1  c #344491",
"2  c #3D4B95",
"3  c #354C9A",
"4  c #384B99",
"5  c #3D4490",
"6  c #2F539F",
"7  c #33529F",
"8  c #3F559F",
"9  c #2454A2",
"0  c #2D56A2",
"q  c #275BA7",
"w  c #2A59A7",
"e  c #245CA9",
"r  c #285EA9",
"t  c #3B57A2",
"y  c #355BA5",
"u  c #3C5BA4",
"i  c #2764AF",
"p  c #2B63AB",
"a  c #2C69AF",
"s  c #3563AA",
"d  c #3A61AA",
"f  c #3966AB",
"g  c #2D6DB3",
"h  c #3B6BB1",
"j  c #336EB4",
"k  c #2A75BA",
"l  c #2C7BBE",
"z  c #2B71B5",
"x  c #3F76B7",
"c  c #327BBD",
"v  c #3576B9",
"b  c #404B97",
"n  c #42539C",
"m  c #4D579C",
"M  c #51589E",
"N  c #4256A2",
"B  c #455CA4",
"V  c #4D5CA2",
"C  c #595FA1",
"Z  c #4163AA",
"A  c #4964AA",
"S  c #4269AE",
"D  c #4B69AD",
"F  c #4662A5",
"G  c #5462A5",
"H  c #5B64A5",
"J  c #5666A9",
"K  c #5B67A8",
"L  c #526BAE",
"P  c #5A6BAC",
"I  c #406EB1",
"U  c #4D6DB2",
"Y  c #506DB0",
"T  c #4D72B5",
"R  c #4178BA",
"E  c #5174B4",
"W  c #547CBB",
"Q  c #5977B6",
"!  c #636CAB",
"~  c #6871AA",
"^  c #777DAF",
"/  c #6374B1",
"(  c #6A77B2",
")  c #6B7CB6",
"_  c #677EB9",
"`  c #6A7FBA",
"'  c #737EB5",
"]  c #577FC0",
"[  c #5482BD",
"{  c #6483BA",
"}  c #6C85BC",
"|  c #6A87B7",
" . c #7783B9",
".. c #7984B9",
"X. c #7C8BBD",
"o. c #7288BD",
"O. c #7B91BD",
"+. c #2D83C3",
"@. c #3183C2",
"#. c #348CC9",
"$. c #3388C5",
"%. c #3594CE",
"&. c #3896CF",
"*. c #349BD4",
"=. c #35A0D7",
"-. c #39A1D7",
";. c #35A3D9",
":. c #3BA7DB",
">. c #4B8FC8",
",. c #4789C4",
"<. c #5784C2",
"1. c #5A83C3",
"2. c #528BC3",
"3. c #558FC8",
"4. c #5E8BC2",
"5. c #4393CC",
"6. c #4D91C9",
"7. c #5699CD",
"8. c #5C98CC",
"9. c #429DD3",
"0. c #4D9FD2",
"q. c #519DD0",
"w. c #628CC4",
"e. c #6E8BC3",
"r. c #788EC2",
"t. c #6493C5",
"y. c #6F90C6",
"u. c #649CCE",
"i. c #6C9BCB",
"p. c #6B96C9",
"a. c #7090C7",
"s. c #7A93C3",
"d. c #739DCC",
"f. c #789ACC",
"g. c #619FD2",
"h. c #5BADDA",
"j. c #6AA0CD",
"k. c #72A1CF",
"l. c #64A4D3",
"z. c #73A3D0",
"x. c #77A9D5",
"c. c #7CABD5",
"v. c #7AA5D1",
"b. c #7FB5D7",
"n. c #7DBADE",
"m. c #40B7E5",
"M. c #49B9E6",
"N. c #48BCE8",
"B. c #4BB2E2",
"V. c #50B4E1",
"C. c #66BFE6",
"Z. c #6CBCE4",
"A. c #7BBDE2",
"S. c #5FC5EB",
"D. c #7AC7E8",
"F. c #78D2F1",
"G. c #878AB7",
"H. c #8A8FBD",
"J. c #848BB8",
"K. c #8E91BC",
"L. c #8592C2",
"P. c #8B93C2",
"I. c #8B9AC6",
"U. c #849DCB",
"Y. c #9598C0",
"T. c #999EC8",
"R. c #9D9FC2",
"E. c #8EA3CC",
"W. c #84A4CF",
"Q. c #99A5C2",
"!. c #9BA3CA",
"~. c #96A6CA",
"^. c #84ABD3",
"/. c #8CAEDA",
"(. c #8BA8D2",
"). c #9EABD2",
"_. c #86B7DA",
"`. c #8BBADD",
"'. c #89B7DB",
"]. c #94B3DA",
"[. c #9DB7D9",
"{. c #9BBEDF",
"}. c #A5A8C6",
"|. c #A1A7CD",
" X c #A6A9C8",
".X c #AEB2CD",
"XX c #B2BAC9",
"oX c #A1ADD2",
"OX c #A6B5D6",
"+X c #ADB4D4",
"@X c #A4B7D8",
"#X c #AAB8D8",
"$X c #A3BEDE",
"%X c #B5BFDD",
"&X c #A0BDE1",
"*X c #ABC0DE",
"=X c #A2C2DD",
"-X c #BFC2D0",
";X c #B5C5D8",
":X c #93C1E2",
">X c #A5C2E4",
",X c #AAC5E3",
"<X c #AFCCE9",
"1X c #B3C5E2",
"2X c #BCCBE3",
"3X c #B2CCE8",
"4X c #B7CDE7",
"5X c #A0D1E7",
"6X c #A7D3E8",
"7X c #B3D1EA",
"8X c #BCD3EB",
"9X c #BAD5E1",
"0X c #B9DFF2",
"qX c #BBE2F3",
"wX c #C1C6CE",
"eX c #C1C5DC",
"rX c #C7CADF",
"tX c #CED1D6",
"yX c #D3D3D3",
"uX c #D2D4D9",
"iX c #DADADA",
"pX c #C2CDE5",
"aX c #CACCE1",
"sX c #C5D1E6",
"dX c #C8D3E7",
"fX c #C3D4EB",
"gX c #C5D8EE",
"hX c #CCDAED",
"jX c #CAD8E8",
"kX c #D0D4E7",
"lX c #D3DDED",
"zX c #DBDEEC",
"xX c #C4DCF0",
"cX c #CDDBF0",
"vX c #D0DDF0",
"bX c #D1E0EF",
"nX c #DDE2EC",
"mX c #DCE0E3",
"MX c #C2E2F3",
"NX c #CBE3F2",
"BX c #D3E3F1",
"VX c #DCE5F3",
"CX c #D8E8F2",
"ZX c #E4E4E4",
"AX c #ECECEC",
"SX c #E3E7F2",
"DX c #E4EBF4",
"FX c #EAEEF6",
"GX c #EDF0F7",
"HX c #EDF3F9",
"JX c #E4F0F8",
"KX c #F4F4F4",
"LX c #F2F6FA",
"PX c #F5F8FA",
"IX c #FEFEFE",
"UX c None",
/* pixels */
"UXUXUXUXUXUXUXUXUXUXUXUXUXUXO o o o UXUXUXUXUXUXUXUXUXUXUXUXUXUX",
"UXUXUXUXUXUXUXUXUXUX# ! X.P.P.L.P.P.! b + . UXUXUXUXUXUXUXUXUXUX",
"UXUXUXUXUXUXUXUX+ C P.+XH.' ( ! K V V C K / n . UXUXUXUXUXUXUXUX",
"UXUXUXUXUXUXUXC P.+X%XoX' / H 4 N P V H V ( ` P + UXUXUXUXUXUXUX",
"UXUXUXUXUXUX~ T.T.2XsXoXL./ N B e.e.B J J / ) _ _ 2 UXUXUXUXUXUX",
"UXUXUXUXUX! T.P.P.pXfX1XE.L Y t A a.r.r.) B N B _ _ 2 UXUXUXUXUX",
"UXUXUXUXM |.P.X.oXhX4X1X>XU.} U.A (.Y t B B B t } s.n # UXUXUXUX",
"UXUXUX= P.!... .dXfXhXpXe., T d Z Q 0 , t , ; t Z } Q n . UXUXUX",
"UXUXUX! J.I.` OXvXvX4X,Xa.d /.f.S } d 9 D 6 - - B U @ @ m . UXUX",
"UXUX= ......oXVXhX4X4X4X&X]././.W q 0 s y & % - 0 t $ O t # UXUX",
"UXUXH ../ I.sXhXgXgXgX&X>XHXIXvXW.h f q 9 9 > > y S pXVXI.4 UXUX",
"UX+ b ( X.r.sXvXfX8X4X<X<X>XvXLXPXFXsXh q 9 9 > % pXIXLX#XB o UX",
"UX+ @ ( r.o.1XcXfX8X8X3X8X].p.(.HXIXIXFXd.q 9 9 u FXPX2XU U + UX",
"UXm kXIXIXIXHXVXgXgXxXxX7Xk.i.k.k.VXIXIXLX[.e 9 U.IXzXT T A 1 UX",
"UXFXIXIXIXIXIXIXJX$X].<Xv.z.z.x.k.,.8XPXIXJXf e jXDX1.W E A 1 UX",
"UXIXIXIXIXIXIXIXIXIXvX{.c.x.x.^.x.c c '.HXGXg e *XW 1.<.E U * UX",
"UXIXIXIXIXIXIXIXIXIXIXIXfX5.,.u.g.l l c 3.3Xa i e h t.W E W 2 UX",
"UXDXIXIXIXIXSXGXIXIXIXIXIXHX`.5.@.+.+.@.l k g i e f w.<.t L +XUX",
"UXrXIXIXIXdXe 4.i.CXIXIXIXIXIXIXNX_.5.@.l l z g p I 0 y 3 eXrXUX",
"UX XIXIXIX@Xe <.v k l.:XNXIXIXIXIXIXIXBX`.u.,.j [ T { #XnX+XK.UX",
"UXY.IXIXIX2Xh j u.l +.#.%.9.n.5XNXHXIXIXIXIXIXIXPXhXE.F < zXG.UX",
"UXUXDXIXIXKXh R 2.>.$.%.%.*.=.=.*.*.9.0.q.7.j.[ p 6 y E.HXFXUXUX",
"UXUXK.IXIXIX1Xx c 8.5.9.*.-.;.:.;.=.*.&.#.7.8.t./.;XIXlX|.H.UXUX",
"UXUXUXSXPXPXIXIXPXDXCXxXMXMXMXqXqXqX0XMXJXLXIXIXPXdX} J.zXUXUXUX",
"UXUXUXK.KXKXKXKXPXKXKXKXKXPXKXKXPXKXPXPXVX7X^.[ s s.lXIX^ UXUXUX",
"UXUXUXUXR.AXAXAXAXAXjXl.A.V.M.N.M.S.Z.&.#.c t.*XKXIXIXrXUXUXUXUX",
"UXUXUXUXUX}.AXZXZXZXj.$.9.D.S.F.D.B.h.b.=XnXAXKXKXKX;XUXUXUXUXUX",
"UXUXUXUXUXUX}.ZXZXZX;X_._.D.5X6X9XmXZXZXAXZXAXAXAX.XUXUXUXUXUXUX",
"UXUXUXUXUXUXUX~ wXiXiXiXyXiXyXiXiXiXiXmXZXZXZXiXG.UXUXUXUXUXUXUX",
"UXUXUXUXUXUXUXUXUXO.uXiXyXyXyXyXyXyXyXiXiXuXQ.UXUXUXUXUXUXUXUXUX",
"UXUXUXUXUXUXUXUXUXUXUXo.O.Q.;XtXyXwXXXQ.| UXUXUXUXUXUXUXUXUXUXUX",
"UXUXUXUXUXUXUXUXUXUXUXUXUXUXUXUXUXUXUXUXUXUXUXUXUXUXUXUXUXUXUXUX"
};
