/* XPM */
static char *xdg_browser_launcher___[] = {
/* columns rows colors chars-per-pixel */
"16 16 182 2",
"   c #262F79",
".  c #232E7C",
"X  c #262F80",
"o  c #22388A",
"O  c #39458D",
"+  c #244798",
"@  c #27509C",
"#  c #3B539E",
"$  c #3B569F",
"%  c #2957A3",
"&  c #2659A5",
"*  c #355AA4",
"=  c #345DA6",
"-  c #3C5CA4",
";  c #2E64AB",
":  c #3464AB",
">  c #2C6AB0",
",  c #444991",
"<  c #475094",
"1  c #44569A",
"2  c #4F5699",
"3  c #4F5D9F",
"4  c #545C98",
"5  c #405FA4",
"6  c #4962A8",
"7  c #4B6BAF",
"8  c #4D6DAD",
"9  c #5261A5",
"0  c #5662A5",
"q  c #5664A6",
"w  c #586BAA",
"e  c #5A6EAD",
"r  c #5F70AE",
"t  c #4075B7",
"y  c #4E72B4",
"u  c #4879B9",
"i  c #5C77B1",
"p  c #5A78B5",
"a  c #5C7AB5",
"s  c #5F7DB9",
"d  c #6067A5",
"f  c #646DA9",
"g  c #686DA9",
"h  c #6170AD",
"j  c #6A73B0",
"k  c #667CB6",
"l  c #6B7EB0",
"z  c #6C7EB5",
"x  c #677FB9",
"c  c #7179B0",
"v  c #317FC0",
"b  c #4E86BE",
"n  c #5984BD",
"m  c #5C84BF",
"M  c #6784BD",
"N  c #6389BE",
"B  c #7882B8",
"V  c #7F86B9",
"C  c #778ABF",
"Z  c #3C8AC6",
"A  c #358CC9",
"S  c #3697D0",
"D  c #5781C0",
"F  c #5290C8",
"G  c #5A93C9",
"H  c #5896CB",
"J  c #5D95C9",
"K  c #5B9CCE",
"L  c #6A86C0",
"P  c #7F8DC0",
"I  c #7690C4",
"U  c #7797C9",
"Y  c #739FCC",
"T  c #4BA6D8",
"R  c #7DA2CC",
"E  c #7CA7D3",
"W  c #7CABD4",
"Q  c #7EAAD5",
"!  c #7FB1D7",
"~  c #6FB9E1",
"^  c #79BCE1",
"/  c #7EC5E8",
"(  c #8286B2",
")  c #828DBE",
"_  c #8490C0",
"`  c #8B96C3",
"'  c #889CC2",
"]  c #8898C4",
"[  c #9197C3",
"{  c #9298C3",
"}  c #919CC4",
"|  c #81A0CC",
" . c #9CA5C3",
".. c #9EA1C6",
"X. c #93A4C9",
"o. c #89ACD7",
"O. c #87B4D5",
"+. c #93B0D5",
"@. c #9CBDDD",
"#. c #A1ABC6",
"$. c #A2A7C8",
"%. c #A9ABCD",
"&. c #ABAECF",
"*. c #AAB2D4",
"=. c #ADB6D7",
"-. c #AAB8D8",
";. c #AEBFDB",
":. c #B4B7D4",
">. c #9DBEE0",
",. c #AEC1DD",
"<. c #B4C0DA",
"1. c #BDC2DA",
"2. c #B9C3DE",
"3. c #85C1E3",
"4. c #8EC9E8",
"5. c #8ACCEB",
"6. c #95C2E1",
"7. c #96C1E2",
"8. c #95CEE5",
"9. c #9DCAE7",
"0. c #9FCBE7",
"q. c #8DD5EF",
"w. c #9FD5EC",
"e. c #A2C3E1",
"r. c #A5C3E0",
"t. c #A9C5E3",
"y. c #ACCBE0",
"u. c #A9CDE7",
"i. c #BAC7E3",
"p. c #B6C9E2",
"a. c #B6CDE7",
"s. c #B9C8E1",
"d. c #BDCAE1",
"f. c #B3CCE9",
"g. c #A5D1E9",
"h. c #A1D7ED",
"j. c #A8D5E9",
"k. c #BDD2E7",
"l. c #BCD3EC",
"z. c #BED7EC",
"x. c #BED6EE",
"c. c #D5D5D5",
"v. c #D7D7D7",
"b. c #D6D7D8",
"n. c #D4D6DE",
"m. c #DADADA",
"M. c #DADBDC",
"N. c #C0CCE6",
"B. c #C3D1E6",
"V. c #C0D0E8",
"C. c #C7D5E9",
"Z. c #C1D6ED",
"A. c #C9D7EC",
"S. c #C0DAED",
"D. c #C5D8ED",
"F. c #C8D9EB",
"G. c #C9DCE9",
"H. c #CBDAED",
"J. c #D3D8E3",
"K. c #D5DEE6",
"L. c #D9DCE6",
"P. c #D0DCEE",
"I. c #D9DFEE",
"U. c #D3E7F4",
"Y. c #DEE8F3",
"T. c #DFEDF7",
"R. c #E3E3E3",
"E. c #EEEEEE",
"W. c #E5EAF4",
"Q. c #E4ECF5",
"!. c #E7EEF7",
"~. c #E9ECF3",
"^. c #EFF4F9",
"/. c #F0F0F0",
"(. c #F1F4F9",
"). c #F7F9FC",
"_. c #F9FAFC",
"`. c #FDFEFF",
"'. c #FEFEFE",
"]. c #FEFEFF",
"[. c #FFFFFF",
"{. c None",
/* pixels */
"{.{.{.{.{.{.c g f , {.{.{.{.{.{.",
"{.{.{.{.V *.B q q q r 4 {.{.{.{.",
"{.{.2 [ =.i.I 6 L x e w w . {.{.",
"{.{.{ ) k.d.I M s - - # x 1 {.{.",
"{.d _ -.H.a.U o.y = * + 5 o O {.",
"{.j P A.D.f.l.Q.p.L % @ p I.z {.",
", ` 2.P.Z.x.>.R D.^.+.& d.i.7   ",
"&.[.[.[.Y.t.Q Q H ,.Q.; ,.D 8 X ",
"%.[.[.[.[.[.x.K A v G > : D 8 4 ",
"..[.W.u E z.T.[.U.6.H b n p } ( ",
"{._.^.> F A S T ! w.6.@.| i 1.{.",
"{.:.[.C.e.0.4.5./ 3.g.k.B.<.$.{.",
"{.{.L././.G.j.h.w.g.O.R ,.~.{.{.",
"{.{.{.n.R.O.~ q.8.y.K.E.J.{.{.{.",
"{.{.{.{. .b.c.c.b.m.M.#.{.{.{.{.",
"{.{.{.{.{.{.] X.' l {.{.{.{.{.{."
};
